<svg version="1.1" xmlns="http://www.w3.org/2000/svg" xmlns:xlink="http://www.w3.org/1999/xlink" width="107.92127" height="106.94106" viewBox="0,0,107.92127,106.94106"><g transform="translate(-185.85976,-127.65447)"><g data-paper-data="{&quot;isPaintingLayer&quot;:true}" fill-rule="nonzero" stroke-linejoin="miter" stroke-miterlimit="10" stroke-dasharray="" stroke-dashoffset="0" style="mix-blend-mode: normal"><path d="M198.63758,228.67073c-0.22605,-0.04532 0.5179,-20.71165 -1.91982,-37.25959c-0.78451,-5.32553 -7.98559,-10.48033 -8.608,-18.42049c-0.70713,-9.0209 7.63689,3.01761 8.50083,0.18533c0.86394,-2.83227 -1.10406,-17.81352 -0.68028,-21.38098c0.14698,-1.23726 19.93665,-2.80618 19.93665,-2.80618c0,0 5.15291,-6.4947 12.60305,-10.59282c1.7674,-0.9722 4.41187,-5.29922 6.28938,-5.36801c1.73626,-0.06362 -0.44387,9.64742 1.29424,9.70663c1.41706,0.04828 7.02022,0.42653 10.82945,-1.56676c3.9669,-2.07578 5.7751,-8.37181 7.27047,-8.28986c1.29715,0.07109 0.40611,13.30046 1.63835,13.43327c0.61211,0.06598 2.43174,-0.4186 4.06719,-1.86379c1.87318,-1.65528 3.58151,-4.30211 4.26571,-4.24518c1.32702,0.11041 2.74416,7.76316 3.97163,7.90772c16.04363,1.88947 22.12738,-0.43225 22.24708,1.13648c1.49096,19.54122 2.66683,74.84744 0,76.82795c-10.87877,8.07906 -55.5766,7.68554 -91.70592,2.5963z" fill="#1c4bbf" stroke="#000000" stroke-width="4.5" stroke-linecap="butt"/><path d="M197.98414,198.70742c0,0 4.46716,1.81056 7.04735,-2.03583c2.21395,-3.30043 0.70364,-13.64875 2.99106,-13.64875c0.86727,0 5.14432,-0.28927 6.20962,-3.9141c1.82371,-6.20538 -1.24229,-14.33836 1.72423,-13.8257c0.47435,0.08197 2.15675,0.32993 3.63293,-0.20399c1.02623,-0.37118 1.9528,-1.60263 2.30452,-1.51827c0.36833,0.08834 2.58286,3.96908 5.54594,3.76414c3.04472,-0.21059 6.50781,-5.99939 7.07687,-5.79674c1.75678,0.62558 1.51985,5.86512 3.29145,6.7312c0.47911,0.23422 3.44397,-0.91422 5.61531,-3.60381c1.61316,-1.99818 1.05769,-5.58056 1.41589,-5.3932c0.71038,0.37156 3.97472,1.65667 6.61923,1.7892c2.51188,0.12588 4.41926,-0.89766 4.72226,-0.68036c1.69619,1.2164 0.83718,8.54474 2.35628,9.99565c0.16423,0.15686 3.65464,-1.56311 4.94588,-3.29256c2.17417,-2.91205 2.56795,-6.53632 2.83478,-6.27085c1.40219,1.39502 9.44669,5.36393 10.60482,7.00344c0.6209,0.87899 0.61219,-7.57886 1.1369,-6.70512c1.54516,2.57296 5.64153,3.20691 7.02081,6.44455c5.28974,12.41678 6.45077,29.85407 6.45077,29.85407" fill="none" stroke="#000000" stroke-width="4.5" stroke-linecap="round"/><path d="M232.85348,176.97575c2.76909,-0.08039 5.54814,-0.00644 8.31536,-0.00561c0.61178,0.00018 4.02311,-0.10697 4.76097,0.28074c2.63923,1.38676 3.69755,4.36915 4.73147,6.91648c2.36937,5.83757 3.07894,12.82903 1.57603,18.93966c-3.03364,4.87198 -9.05534,8.25705 -14.74791,9.03223c-1.55511,0.21176 -4.96112,0.96242 -6.53618,0.28463c-1.13351,-0.48778 -3.34917,-2.68661 -4.28148,-3.55933c-1.77785,-1.66417 -4.17481,-3.61131 -5.47983,-5.68381c-2.5468,-4.04458 -2.93397,-9.34665 -2.93397,-13.94847c0.01511,-0.95397 -0.18154,-1.93518 0.04532,-2.86189c0.65873,-2.69079 3.11522,-4.00402 4.61053,-6.02317c0.42961,-0.58011 1.45058,-2.37952 2.13263,-2.80235c1.96909,-1.22069 3.95611,-1.24941 6.15049,-1.25159h0.50764c0,0 0.83795,0 1.14892,0.68246zM228.66638,178.90052c-0.7422,0.09397 -1.46576,0.29073 -2.14862,0.69828c-1.11844,0.66753 -1.76063,2.6924 -2.74857,3.6176c-2.03348,1.90433 -3.04494,3.10488 -2.98471,6.01588c0,4.11213 0.24613,8.97981 2.54323,12.59876c1.20129,1.89256 3.44627,3.66808 5.07074,5.18912c0.20054,0.18778 2.92675,2.80352 3.38061,3.01597c0.89161,0.41736 1.97092,0.00086 2.95242,-0.07544c3.23243,-0.25125 5.36772,-0.91809 8.20504,-2.3841c3.04964,-1.5757 5.10147,-2.49299 6.97313,-5.45205c1.30385,-5.42732 0.50017,-11.84829 -1.58972,-17.00779c-0.73084,-1.80428 -1.53081,-4.54514 -3.42805,-5.56239c-1.09385,-0.5865 -2.48188,-0.05806 -3.72303,-0.05769c-3.73561,0.00114 -7.49712,-0.14751 -11.22071,0.16485c0,0 -0.97787,0.08149 -1.28175,-0.76101z" fill="#000000" stroke="none" stroke-width="0.5" stroke-linecap="butt"/><path d="M269.89699,178.94969c3.44281,-0.25901 7.48954,-1.37683 10.72007,-0.40767c3.2337,0.97012 3.83916,4.42019 4.66098,7.15412c1.8143,6.03565 1.98839,11.66181 1.72249,17.93949c-1.77438,1.69939 -3.4424,3.35985 -5.73645,4.36019c-6.81582,2.97209 -16.07488,1.21621 -19.93941,-5.48868c-2.10032,-3.644 -2.49889,-10.39535 -1.59154,-14.5348c0.05279,-0.24084 1.86532,-4.43535 2.02516,-4.80765c2.29828,-2.83634 3.66941,-4.95593 7.51164,-5.01004zM267.50412,180.95809c-1.50711,0.57521 -2.30756,1.97142 -3.58277,3.51213c-0.56252,1.35228 -1.4067,2.61243 -1.72029,4.04308c-1.4789,6.74689 0.57816,16.62874 8.50736,18.09499c1.76275,0.32596 4.41875,0.17778 6.19097,-0.01633c3.27117,-0.35829 5.23032,-2.26255 7.80575,-4.01205c-0.25955,-3.75281 0.32685,-7.72163 -0.43493,-11.42388c-0.33179,-1.61247 -0.938,-3.15607 -1.41179,-4.73266c-0.45554,-1.51587 -0.8833,-4.96243 -2.9379,-5.45272c-3.51553,-0.83892 -7.7936,0.54463 -11.32746,0.55659c0,0 -0.74241,0 -1.08895,-0.56914z" fill="#000000" stroke="none" stroke-width="0.5" stroke-linecap="butt"/><path d="M246.94935,199.47444c-0.60647,1.14131 -1.95538,1.54083 -2.88117,1.54083c-0.85005,0 -2.23912,-0.69736 -2.8299,-1.67823c-0.69546,-1.15467 -0.5211,-2.74164 -0.5211,-4.62341c0,-3.4803 0.68301,-6.50595 2.53372,-6.50595c1.85071,0 4.3726,1.79973 4.3726,5.28003c0,1.73934 -0.06823,4.84648 -0.67415,5.98673z" fill="#1c4bbf" stroke="#000000" stroke-width="3.5" stroke-linecap="butt"/><path d="M281.13205,192.77259c0,0.86648 -0.08841,1.66298 -0.00667,2.79685c0.11174,1.5501 -0.36341,2.61766 -0.66748,3.18988c-0.60647,1.14131 -2.05754,0.8257 -2.98332,0.8257c-0.85005,0 -2.13696,0.01776 -2.72773,-0.9631c-0.69545,-1.15467 -0.5211,-2.74164 -0.5211,-4.62341c0,-0.41539 0.32784,-0.10482 0.36864,-0.4952c0.30097,-2.88033 1.35255,-5.70427 2.98236,-5.70427c1.85071,0 3.55532,1.49325 3.55532,4.97355z" fill="#1c4bbf" stroke="#000000" stroke-width="3.5" stroke-linecap="butt"/><path d="M275.56753,218.08101c1.19597,0.75796 0.29899,1.76857 0.29899,1.76857l-0.45798,0.51274c-5.13951,6.2491 -15.33561,5.07314 -23.0864,4.22261c-4.38461,-0.48114 -8.92847,-1.48308 -12.36172,-3.97265c0,0 -1.12508,-0.83186 -0.14063,-1.78257c0.98445,-0.9507 2.10953,-0.11884 2.10953,-0.11884c1.80329,1.36765 4.15425,1.97186 6.40494,2.70739c1.38446,0.45245 2.9113,0.5029 4.38365,0.66236c5.51234,0.59703 11.50321,1.73882 16.46603,-0.79704c1.7334,-0.88572 2.65467,-0.86229 3.73682,-2.32274l0.5538,-0.6272c0,0 0.89699,-1.01061 2.09297,-0.25265z" fill="#000000" stroke="none" stroke-width="0.5" stroke-linecap="butt"/><path d="M286.14572,142.23825c-1.26326,0 -1.26326,-1.26326 -1.26326,-1.26326v-0.54145c0.00016,-0.52977 0.00032,-1.05953 0.00048,-1.58931c-0.14399,-2.5984 -0.15143,-5.50776 -2.25346,-7.40315c-2.53418,-2.28507 -7.83285,-1.33569 -9.41692,1.62178c-1.22481,2.28673 -0.63938,6.04668 -0.63938,8.56188c0,0 0,1.26326 -1.26326,1.26326c-1.26326,0 -1.26326,-1.26326 -1.26326,-1.26326c0,-2.93487 -0.56543,-6.96171 0.87669,-9.63091c2.37188,-4.3901 9.44248,-5.85521 13.32408,-2.49326c2.75617,2.38719 2.97379,5.91035 3.16107,9.27357c0.00016,0.55313 0.00033,1.10627 0.00049,1.65941v0.54146c0,0 0,1.26326 -1.26326,1.26326z" fill="#000000" stroke="none" stroke-width="0.5" stroke-linecap="butt"/></g></g></svg>